<svg width="77" height="100" viewBox="0 0 77 100" fill="none" xmlns="http://www.w3.org/2000/svg">
<path d="M0 100V0H39.962C47.3046 0 53.4289 1.0905 58.3348 3.27149C63.2407 5.45248 66.9283 8.47982 69.3975 12.3535C71.8667 16.1947 73.1013 20.6218 73.1013 25.6348C73.1013 29.541 72.3215 32.9753 70.762 35.9375C69.2025 38.8672 67.0582 41.276 64.3291 43.1641C61.6325 45.0195 58.546 46.3379 55.0696 47.1191V48.0957C58.8709 48.2585 62.4285 49.3327 65.7424 51.3184C69.0888 53.304 71.8017 56.0872 73.881 59.668C75.9603 63.2161 77 67.4479 77 72.3633C77 77.6693 75.6842 82.4056 73.0525 86.5723C70.4534 90.7064 66.6034 93.9779 61.5025 96.3867C56.4017 98.7956 50.115 100 42.6424 100H0ZM21.1019 82.7149H38.3051C44.1857 82.7149 48.4743 81.5918 51.1709 79.3457C53.8675 77.0671 55.2158 74.0397 55.2158 70.2637C55.2158 67.4967 54.5498 65.0553 53.2177 62.9395C51.8857 60.8236 49.985 59.1634 47.5158 57.959C45.0791 56.7546 42.1713 56.1523 38.7924 56.1523H21.1019V82.7149ZM21.1019 41.8457H36.7456C39.6371 41.8457 42.2038 41.3411 44.4456 40.332C46.7198 39.2904 48.5068 37.8255 49.8063 35.9375C51.1384 34.0495 51.8044 31.7871 51.8044 29.1504C51.8044 25.5371 50.5211 22.6237 47.9544 20.4102C45.4203 18.1966 41.8139 17.0898 37.1354 17.0898H21.1019V41.8457Z" fill="#333333"/>
</svg>
