<svg width="88" height="100" viewBox="0 0 88 100" fill="none" xmlns="http://www.w3.org/2000/svg">
<path d="M88 35.4087H67.0863C66.7043 32.7155 65.9244 30.3232 64.7466 28.2319C63.5688 26.109 62.0568 24.3029 60.2105 22.8137C58.3643 21.3245 56.2315 20.1838 53.8123 19.3916C51.4248 18.5995 48.8305 18.2034 46.0293 18.2034C40.968 18.2034 36.5592 19.455 32.803 21.9582C29.0468 24.4297 26.1342 28.0418 24.0651 32.7947C21.996 37.5158 20.9615 43.2509 20.9615 50C20.9615 56.9392 21.996 62.7693 24.0651 67.4905C26.166 72.2117 29.0946 75.7763 32.8508 78.1844C36.607 80.5925 40.9521 81.7966 45.886 81.7966C48.6554 81.7966 51.2179 81.4322 53.5735 80.7034C55.9609 79.9746 58.0778 78.9132 59.924 77.519C61.7703 76.0931 63.2983 74.3663 64.5079 72.3384C65.7493 70.3105 66.6088 67.9975 67.0863 65.3992L88 65.4943C87.4589 69.962 86.106 74.2712 83.9414 78.422C81.8087 82.5412 78.9279 86.2326 75.299 89.4962C71.702 92.7281 67.4046 95.2947 62.407 97.1958C57.4411 99.0653 51.8228 100 45.5518 100C36.8298 100 29.0309 98.0355 22.1552 94.1065C15.3113 90.1774 9.8998 84.4899 5.92078 77.0437C1.9736 69.5976 0 60.583 0 50C0 39.3853 2.00544 30.3549 6.01629 22.9087C10.0271 15.4626 15.4704 9.79088 22.3462 5.89354C29.2219 1.96452 36.9571 0 45.5518 0C51.218 0 56.4703 0.792144 61.3087 2.37643C66.1791 3.96071 70.4923 6.27376 74.2485 9.31559C78.0047 12.3257 81.0606 16.0171 83.4162 20.3897C85.8036 24.7624 87.3315 29.7687 88 35.4087Z" fill="#333333"/>
</svg>
