<svg width="24" height="24" viewBox="0 0 24 24" fill="none" xmlns="http://www.w3.org/2000/svg">
<g clip-path="url(#clip0_2122_606)">
<path d="M10.5009 16.035L7.40488 12.94C7.12361 12.6586 6.74209 12.5005 6.34423 12.5004C5.94637 12.5003 5.56477 12.6582 5.28338 12.9395C5.00198 13.2208 4.84384 13.6023 4.84375 14.0001C4.84366 14.398 5.00161 14.7796 5.28288 15.061L10.9399 20.718C11.0792 20.8574 11.2446 20.968 11.4266 21.0434C11.6087 21.1188 11.8038 21.1577 12.0009 21.1577C12.1979 21.1577 12.3931 21.1188 12.5751 21.0434C12.7572 20.968 12.9226 20.8574 13.0619 20.718L18.7189 15.062C18.8582 14.9227 18.9687 14.7573 19.0441 14.5752C19.1195 14.3932 19.1584 14.198 19.1584 14.001C19.1584 13.804 19.1195 13.6088 19.0441 13.4268C18.9687 13.2447 18.8582 13.0793 18.7189 12.94C18.5795 12.8007 18.4141 12.6901 18.2321 12.6147C18.05 12.5393 17.8549 12.5005 17.6579 12.5005C17.4608 12.5005 17.2657 12.5393 17.0837 12.6147C16.9016 12.6901 16.7362 12.8007 16.5969 12.94L13.5009 16.035V4.5C13.5009 4.10218 13.3428 3.72064 13.0615 3.43934C12.7802 3.15804 12.3987 3 12.0009 3C11.6031 3 11.2215 3.15804 10.9402 3.43934C10.6589 3.72064 10.5009 4.10218 10.5009 4.5V16.035Z" fill="#444444"/>
</g>
<defs>
<clipPath id="clip0_2122_606">
<rect width="24" height="24" fill="white"/>
</clipPath>
</defs>
</svg>
