<svg width="16" height="16" viewBox="0 0 16 16" fill="none" xmlns="http://www.w3.org/2000/svg">
<path d="M7.06316 15.6188C6.98749 15.7528 6.87244 15.8603 6.73362 15.9266C6.59481 15.993 6.43894 16.0151 6.28716 15.9898L6.04916 15.9498C5.59766 15.8746 5.16715 15.7049 4.78581 15.4517C4.40447 15.1986 4.08091 14.8677 3.8363 14.4809C3.5917 14.094 3.43157 13.6598 3.3664 13.2067C3.30124 12.7537 3.3325 12.292 3.45816 11.8518L3.91616 10.2498L3.25116 10.2498C2.74599 10.2499 2.24778 10.1321 1.79606 9.90594C1.34435 9.67977 0.951585 9.35142 0.648935 8.94695C0.346285 8.54248 0.14209 8.07302 0.0525577 7.57585C-0.0369744 7.07869 -0.00937813 6.56749 0.133157 6.08285L1.26816 2.22385C1.4358 1.65391 1.78349 1.15359 2.25921 0.797747C2.73492 0.441906 3.31308 0.249685 3.90716 0.249848L8.82416 0.249849C9.60762 0.249961 10.3714 0.495451 11.0082 0.951849C11.1712 0.733867 11.3828 0.556912 11.6261 0.435048C11.8695 0.313184 12.138 0.249771 12.4102 0.249849L13.6602 0.249849C14.1243 0.249849 14.5694 0.434223 14.8976 0.762412C15.2258 1.0906 15.4102 1.53572 15.4102 1.99985L15.4102 8.49985C15.4102 9.46585 14.6262 10.2498 13.6602 10.2498L10.2432 10.2498C10.199 10.25 10.1556 10.2618 10.1175 10.2841C10.0794 10.3064 10.0479 10.3384 10.0262 10.3768L7.06316 15.6188ZM10.6602 2.60085L10.2642 2.27085C9.86016 1.93385 9.35016 1.74985 8.82416 1.74985L3.90716 1.74985C3.63708 1.74966 3.3742 1.83695 3.15788 1.99865C2.94156 2.16035 2.78343 2.38776 2.70716 2.64685L1.57216 6.50585C1.49536 6.76683 1.48047 7.04212 1.52866 7.30986C1.57686 7.57761 1.68681 7.83043 1.84979 8.04825C2.01277 8.26607 2.22428 8.4429 2.46754 8.56469C2.71081 8.68648 2.97911 8.74988 3.25116 8.74985L4.91016 8.74985C5.02623 8.74987 5.14071 8.77684 5.24458 8.82862C5.34846 8.88039 5.43891 8.95558 5.5088 9.04825C5.57869 9.14092 5.62611 9.24854 5.64735 9.36265C5.66858 9.47676 5.66304 9.59424 5.63116 9.70585L4.90016 12.2638C4.77644 12.697 4.82455 13.1613 5.03447 13.5599C5.2444 13.9585 5.59996 14.2608 6.02716 14.4038L8.72016 9.63885C8.87259 9.36911 9.09391 9.14468 9.36149 8.98849C9.62907 8.8323 9.93333 8.74995 10.2432 8.74985L10.6602 8.74985L10.6602 2.60085ZM12.1602 8.74985L13.6602 8.74985C13.7265 8.74985 13.79 8.72351 13.8369 8.67663C13.8838 8.62974 13.9102 8.56615 13.9102 8.49985L13.9102 1.99985C13.9102 1.86185 13.7982 1.74985 13.6602 1.74985L12.4102 1.74985C12.3439 1.74985 12.2803 1.77619 12.2334 1.82307C12.1865 1.86996 12.1602 1.93354 12.1602 1.99985L12.1602 8.74985Z" fill="#252525"/>
</svg>
