<svg width="16" height="16" viewBox="0 0 16 16" fill="none" xmlns="http://www.w3.org/2000/svg">
<path d="M8.347 0.63115C8.42267 0.497179 8.53772 0.389723 8.67653 0.323356C8.81535 0.256989 8.97122 0.234923 9.123 0.26015L9.361 0.30015C9.81249 0.375376 10.243 0.545122 10.6243 0.798272C11.0057 1.05142 11.3292 1.38227 11.5739 1.76914C11.8185 2.15602 11.9786 2.5902 12.0438 3.04325C12.1089 3.49631 12.0777 3.95802 11.952 4.39815L11.494 6.00015H12.159C12.6642 6.00014 13.1624 6.1179 13.6141 6.34406C14.0658 6.57023 14.4586 6.89858 14.7612 7.30305C15.0639 7.70752 15.2681 8.17697 15.3576 8.67414C15.4471 9.17131 15.4195 9.68251 15.277 10.1672L14.142 14.0262C13.9744 14.5961 13.6267 15.0964 13.151 15.4523C12.6752 15.8081 12.0971 16.0003 11.503 16.0002H6.586C5.80254 16 5.03879 15.7545 4.402 15.2982C4.239 15.5161 4.0274 15.6931 3.78402 15.815C3.54064 15.9368 3.27219 16.0002 3 16.0002H1.75C1.28587 16.0002 0.840752 15.8158 0.512563 15.4876C0.184374 15.1594 0 14.7143 0 14.2502L0 7.75015C0 6.78415 0.784 6.00015 1.75 6.00015H5.167C5.21116 6.00004 5.25451 5.98822 5.29263 5.96592C5.33074 5.94361 5.36227 5.9116 5.384 5.87315L8.347 0.63115ZM4.75 13.6492L5.146 13.9792C5.55 14.3162 6.06 14.5002 6.586 14.5002H11.503C11.7731 14.5003 12.036 14.4131 12.2523 14.2514C12.4686 14.0897 12.6267 13.8622 12.703 13.6032L13.838 9.74415C13.9148 9.48317 13.9297 9.20788 13.8815 8.94014C13.8333 8.67239 13.7233 8.41957 13.5604 8.20175C13.3974 7.98393 13.1859 7.8071 12.9426 7.68531C12.6994 7.56352 12.431 7.50012 12.159 7.50015H10.5C10.3839 7.50013 10.2695 7.47316 10.1656 7.42138C10.0617 7.3696 9.97125 7.29442 9.90136 7.20175C9.83147 7.10908 9.78404 7.00146 9.76281 6.88735C9.74158 6.77324 9.74712 6.65576 9.779 6.54415L10.51 3.98615C10.6337 3.55296 10.5856 3.08874 10.3757 2.69013C10.1658 2.29151 9.81019 1.98921 9.383 1.84615L6.69 6.61115C6.53756 6.88089 6.31625 7.10532 6.04866 7.26151C5.78108 7.4177 5.47683 7.50005 5.167 7.50015H4.75V13.6492ZM3.25 7.50015H1.75C1.6837 7.50015 1.62011 7.52649 1.57322 7.57337C1.52634 7.62026 1.5 7.68385 1.5 7.75015V14.2502C1.5 14.3882 1.612 14.5002 1.75 14.5002H3C3.0663 14.5002 3.12989 14.4738 3.17678 14.4269C3.22366 14.38 3.25 14.3165 3.25 14.2502V7.50015Z" fill="#252525"/>
</svg>
