<svg width="600" height="200" viewBox="0 0 600 200" fill="none" xmlns="http://www.w3.org/2000/svg">
<path d="M206.449 133.767L183.769 156.447C178.813 161.403 170.703 161.403 165.747 156.447L82.2916 72.9912C77.3351 68.0351 77.3351 59.9251 82.2916 54.969L104.971 32.2894C109.927 27.3333 118.037 27.3333 122.994 32.2894L206.449 115.745C211.405 120.701 211.405 128.811 206.449 133.767Z" fill="#D02527"/>
<path d="M190.257 92.668L208.267 74.7286C213.235 69.7808 213.235 61.6839 208.267 56.736L182.141 30.7138C177.174 25.7659 169.045 25.7659 164.077 30.7138L146.066 48.6531L190.257 92.668Z" fill="#D02527"/>
<path d="M98.6502 96.0694L80.7109 114.08C75.763 119.048 75.763 127.177 80.7109 132.145L106.733 158.27C111.681 163.238 119.778 163.238 124.726 158.27L142.665 140.26L98.6502 96.0694Z" fill="#D02527"/>
<path d="M165.69 93.3209C165.69 96.8462 162.806 99.7305 159.281 99.7305C155.755 99.7305 152.871 96.8462 152.871 93.3209C152.871 89.7956 155.755 86.9114 159.281 86.9114C162.806 86.9114 165.69 89.7956 165.69 93.3209Z" fill="white"/>
<path d="M483.523 117.207L459.802 172.986H447.331L456.006 153.738L440.621 117.207H453.566L462.309 140.861L470.984 117.207H483.523Z" fill="black"/>
<path d="M427.492 123.511C428.847 121.432 430.542 119.805 432.575 118.631C434.608 117.411 436.867 116.801 439.353 116.801V129.068H436.167C433.275 129.068 431.107 129.701 429.661 130.966C428.215 132.186 427.492 134.355 427.492 137.472V155.026H415.902V117.207H427.492V123.511Z" fill="black"/>
<path d="M409.443 145.197V155.024H403.546C399.344 155.024 396.069 154.008 393.719 151.974C391.369 149.896 390.195 146.53 390.195 141.876V126.83H385.586V117.206H390.195V107.988H401.784V117.206H409.375V126.83H401.784V142.011C401.784 143.141 402.055 143.954 402.598 144.451C403.14 144.948 404.043 145.197 405.309 145.197H409.443Z" fill="black"/>
<path d="M365.743 116.801C370.171 116.801 373.695 118.247 376.316 121.138C378.982 123.985 380.314 127.916 380.314 132.931V155.026H368.793V134.49C368.793 131.96 368.138 129.994 366.827 128.594C365.517 127.193 363.755 126.493 361.541 126.493C359.327 126.493 357.565 127.193 356.254 128.594C354.944 129.994 354.289 131.96 354.289 134.49V155.026H342.699V117.207H354.289V122.223C355.464 120.551 357.045 119.241 359.033 118.292C361.021 117.298 363.258 116.801 365.743 116.801Z" fill="black"/>
<path d="M294.395 136.048C294.395 132.162 295.117 128.751 296.563 125.814C298.054 122.877 300.065 120.618 302.595 119.036C305.126 117.455 307.95 116.664 311.067 116.664C313.733 116.664 316.06 117.206 318.048 118.291C320.081 119.375 321.64 120.798 322.725 122.561V117.206H334.314V155.025H322.725V149.671C321.595 151.433 320.014 152.856 317.98 153.94C315.992 155.025 313.665 155.567 310.999 155.567C307.927 155.567 305.126 154.776 302.595 153.195C300.065 151.568 298.054 149.287 296.563 146.35C295.117 143.368 294.395 139.934 294.395 136.048ZM322.725 136.116C322.725 133.224 321.911 130.942 320.285 129.27C318.703 127.598 316.76 126.763 314.456 126.763C312.152 126.763 310.186 127.598 308.56 129.27C306.978 130.897 306.187 133.156 306.187 136.048C306.187 138.94 306.978 141.244 308.56 142.961C310.186 144.633 312.152 145.469 314.456 145.469C316.76 145.469 318.703 144.633 320.285 142.961C321.911 141.289 322.725 139.007 322.725 136.116Z" fill="black"/>
<path d="M290.666 122.763C290.666 125.519 290.033 128.049 288.768 130.353C287.503 132.613 285.56 134.442 282.94 135.843C280.319 137.244 277.066 137.944 273.18 137.944H265.996V155.024H254.406V107.445H273.18C276.975 107.445 280.183 108.1 282.804 109.411C285.425 110.721 287.39 112.528 288.701 114.833C290.011 117.137 290.666 119.78 290.666 122.763ZM272.299 128.727C274.513 128.727 276.162 128.207 277.247 127.168C278.331 126.129 278.873 124.66 278.873 122.763C278.873 120.865 278.331 119.396 277.247 118.357C276.162 117.318 274.513 116.798 272.299 116.798H265.996V128.727H272.299Z" fill="black"/>
<path d="M523 37.0938V87.2474H511.41V37.0938H523Z" fill="black"/>
<path d="M463.105 68.2744C463.105 64.3886 463.828 60.9772 465.274 58.0403C466.765 55.1034 468.776 52.8442 471.306 51.2628C473.837 49.6813 476.661 48.8906 479.778 48.8906C482.444 48.8906 484.771 49.4328 486.759 50.5172C488.792 51.6016 490.351 53.0249 491.436 54.7871V49.4328H503.025V87.2514H491.436V81.8972C490.306 83.6593 488.725 85.0826 486.691 86.167C484.703 87.2514 482.376 87.7936 479.71 87.7936C476.638 87.7936 473.837 87.0029 471.306 85.4215C468.776 83.7949 466.765 81.5131 465.274 78.5762C463.828 75.5941 463.105 72.1601 463.105 68.2744ZM491.436 68.3421C491.436 65.4504 490.622 63.1686 488.996 61.4968C487.414 59.825 485.471 58.9891 483.167 58.9891C480.863 58.9891 478.897 59.825 477.27 61.4968C475.689 63.1234 474.898 65.3826 474.898 68.2744C474.898 71.1661 475.689 73.4705 477.27 75.1874C478.897 76.8592 480.863 77.6951 483.167 77.6951C485.471 77.6951 487.414 76.8592 488.996 75.1874C490.622 73.5156 491.436 71.2339 491.436 68.3421Z" fill="black"/>
<path d="M422.07 68.3421C422.07 64.4112 422.861 60.9772 424.442 58.0403C426.069 55.1034 428.306 52.8442 431.152 51.2628C434.044 49.6813 437.342 48.8906 441.047 48.8906C445.792 48.8906 449.745 50.1332 452.908 52.6183C456.116 55.1034 458.217 58.6051 459.211 63.1234H446.876C445.837 60.2317 443.826 58.7858 440.844 58.7858C438.72 58.7858 437.026 59.6217 435.761 61.2935C434.496 62.9201 433.863 65.2697 433.863 68.3421C433.863 71.4146 434.496 73.7867 435.761 75.4585C437.026 77.0851 438.72 77.8984 440.844 77.8984C443.826 77.8984 445.837 76.4526 446.876 73.5608H459.211C458.217 77.9888 456.116 81.4679 452.908 83.9982C449.7 86.5285 445.746 87.7936 441.047 87.7936C437.342 87.7936 434.044 87.0029 431.152 85.4215C428.306 83.8401 426.069 81.5809 424.442 78.644C422.861 75.707 422.07 72.2731 422.07 68.3421Z" fill="black"/>
<path d="M410.214 45.4994C408.181 45.4994 406.509 44.912 405.198 43.7372C403.933 42.5173 403.301 41.0262 403.301 39.264C403.301 37.4567 403.933 35.9656 405.198 34.7909C406.509 33.5709 408.181 32.9609 410.214 32.9609C412.202 32.9609 413.829 33.5709 415.094 34.7909C416.404 35.9656 417.059 37.4567 417.059 39.264C417.059 41.0262 416.404 42.5173 415.094 43.7372C413.829 44.912 412.202 45.4994 410.214 45.4994ZM415.975 49.4303V87.2489H404.385V49.4303H415.975Z" fill="black"/>
<path d="M356.082 68.2704C356.082 64.3846 356.805 60.9732 358.251 58.0363C359.742 55.0994 361.753 52.8402 364.283 51.2588C366.813 49.6774 369.637 48.8866 372.755 48.8866C375.24 48.8866 377.499 49.4063 379.532 50.4455C381.611 51.4847 383.237 52.8854 384.412 54.6475V37.0938H396.002V87.2475H384.412V81.8254C383.328 83.6328 381.769 85.0786 379.736 86.1631C377.748 87.2475 375.421 87.7897 372.755 87.7897C369.637 87.7897 366.813 86.9989 364.283 85.4175C361.753 83.7909 359.742 81.5092 358.251 78.5722C356.805 75.5901 356.082 72.1562 356.082 68.2704ZM384.412 68.3382C384.412 65.4464 383.599 63.1646 381.972 61.4929C380.391 59.8211 378.448 58.9852 376.144 58.9852C373.839 58.9852 371.874 59.8211 370.247 61.4929C368.666 63.1195 367.875 65.3786 367.875 68.2704C367.875 71.1621 368.666 73.4665 370.247 75.1835C371.874 76.8552 373.839 77.6911 376.144 77.6911C378.448 77.6911 380.391 76.8552 381.972 75.1835C383.599 73.5117 384.412 71.2299 384.412 68.3382Z" fill="black"/>
<path d="M352.271 67.7322C352.271 68.8166 352.203 69.9461 352.067 71.1209H325.838C326.019 73.4705 326.764 75.2778 328.075 76.5429C329.43 77.7629 331.079 78.3729 333.022 78.3729C335.914 78.3729 337.925 77.1529 339.054 74.713H351.389C350.757 77.1981 349.605 79.4347 347.933 81.4228C346.306 83.4108 344.25 84.9697 341.765 86.0993C339.28 87.2288 336.502 87.7936 333.429 87.7936C329.724 87.7936 326.426 87.0029 323.534 85.4215C320.642 83.8401 318.383 81.5809 316.756 78.644C315.13 75.707 314.316 72.2731 314.316 68.3421C314.316 64.4112 315.107 60.9772 316.689 58.0403C318.315 55.1034 320.574 52.8442 323.466 51.2628C326.358 49.6813 329.679 48.8906 333.429 48.8906C337.089 48.8906 340.342 49.6587 343.189 51.195C346.035 52.7312 348.249 54.9226 349.831 57.7692C351.457 60.6157 352.271 63.9367 352.271 67.7322ZM340.41 64.6823C340.41 62.6942 339.732 61.1128 338.377 59.938C337.021 58.7632 335.327 58.1758 333.293 58.1758C331.351 58.1758 329.701 58.7406 328.346 59.8702C327.036 60.9998 326.222 62.6038 325.906 64.6823H340.41Z" fill="black"/>
<path d="M308.288 39.668V87.2462H296.698V58.7128L286.057 87.2462H276.704L265.996 58.645V87.2462H254.406V39.668H268.097L281.449 72.6068L294.665 39.668H308.288Z" fill="black"/>
</svg>
