<svg width="600" height="200" viewBox="0 0 600 200" fill="none" xmlns="http://www.w3.org/2000/svg">
<path d="M423.376 84.0938H430.437V98.0638H439.092V103.606H430.437V129.345H423.376V103.606H417.605V98.0638H423.376V84.0938Z" fill="#1EA492"/>
<path d="M384.685 97.9101L385.292 105.578L384.988 104.364C386.001 102.035 387.646 100.188 389.923 98.8212C392.201 97.4039 394.833 96.6953 397.819 96.6953C400.806 96.6953 403.235 97.5811 405.108 99.3527C407.032 101.074 408.019 103.326 408.069 106.11V129.343H400.932V108.615C400.882 106.894 400.376 105.503 399.414 104.44C398.503 103.326 397.06 102.769 395.086 102.769C393.264 102.769 391.619 103.275 390.151 104.288C388.683 105.3 387.519 106.692 386.659 108.464C385.849 110.235 385.444 112.285 385.444 114.613V129.343H378.383V97.9101H384.685Z" fill="#1EA492"/>
<path d="M359.105 97.9141H366.166V129.347H359.105V97.9141Z" fill="#1EA492"/>
<path d="M302.755 97.9101L303.362 104.971L303.059 104.364C304.223 101.985 305.868 100.112 307.994 98.7453C310.17 97.3786 312.65 96.6953 315.434 96.6953C317.206 96.6953 318.775 96.9737 320.141 97.5305C321.508 98.0873 322.622 98.8971 323.482 99.9601C324.393 100.972 324.975 102.238 325.228 103.756L324.849 103.984C326.064 101.706 327.734 99.9347 329.86 98.6693C332.036 97.3533 334.314 96.6953 336.693 96.6953C339.781 96.6953 342.21 97.5811 343.982 99.3527C345.804 101.074 346.74 103.326 346.791 106.11V129.343H339.73V108.615C339.679 106.996 339.274 105.654 338.515 104.591C337.807 103.478 336.541 102.87 334.719 102.769C332.897 102.769 331.252 103.326 329.784 104.44C328.367 105.553 327.253 106.996 326.443 108.767C325.633 110.488 325.203 112.361 325.152 114.386V129.343H318.092V108.615C318.041 106.996 317.611 105.654 316.801 104.591C316.042 103.478 314.751 102.87 312.929 102.769C311.056 102.769 309.411 103.326 307.994 104.44C306.576 105.553 305.463 106.996 304.653 108.767C303.894 110.539 303.514 112.437 303.514 114.462V129.343H296.453V97.9101H302.755Z" fill="#1EA492"/>
<path d="M274.212 97.9101L274.895 107.021L274.516 105.806C275.325 103.883 276.49 102.263 278.008 100.947C279.577 99.5804 281.197 98.5428 282.867 97.8342C284.588 97.0749 286.081 96.6953 287.347 96.6953L286.967 103.68C284.588 103.528 282.488 103.984 280.665 105.047C278.894 106.11 277.477 107.527 276.414 109.299C275.401 111.07 274.895 112.968 274.895 114.993V129.343H267.91V97.9101H274.212Z" fill="#1EA492"/>
<path d="M243.029 130.1C239.436 130.1 236.348 129.391 233.767 127.974C231.185 126.506 229.186 124.532 227.769 122.052C226.402 119.521 225.719 116.636 225.719 113.396C225.719 110.309 226.503 107.5 228.072 104.969C229.641 102.438 231.742 100.413 234.374 98.8949C237.006 97.3764 239.942 96.6172 243.181 96.6172C247.332 96.6172 250.774 97.832 253.507 100.262C256.24 102.691 258.088 106.032 259.049 110.284L233.159 119.394L231.489 115.219L252.748 107.474L251.229 108.461C250.622 106.791 249.61 105.348 248.192 104.134C246.775 102.868 244.928 102.236 242.65 102.236C240.726 102.236 239.005 102.716 237.487 103.678C235.969 104.589 234.779 105.855 233.919 107.474C233.058 109.094 232.628 110.942 232.628 113.017C232.628 115.193 233.083 117.117 233.994 118.787C234.906 120.407 236.146 121.697 237.715 122.659C239.334 123.57 241.157 124.026 243.181 124.026C244.548 124.026 245.864 123.773 247.129 123.267C248.445 122.76 249.66 122.102 250.774 121.293L254.038 126.531C252.469 127.594 250.698 128.455 248.724 129.113C246.8 129.771 244.902 130.1 243.029 130.1Z" fill="#1EA492"/>
<path d="M201.983 130.1C199.604 130.1 197.301 129.543 195.073 128.429C192.897 127.316 191.201 125.823 189.987 123.95L190.442 121.748V144.449H183.457V97.4524H189.531L190.518 105.5L189.759 103.299C191.277 101.375 193.201 99.7807 195.529 98.5153C197.857 97.2499 200.464 96.6172 203.349 96.6172C206.285 96.6172 208.917 97.3258 211.245 98.7431C213.624 100.16 215.497 102.134 216.864 104.665C218.23 107.196 218.914 110.157 218.914 113.548C218.914 116.94 218.18 119.875 216.712 122.356C215.244 124.836 213.219 126.759 210.638 128.126C208.107 129.442 205.222 130.1 201.983 130.1ZM200.616 124.481C202.641 124.481 204.488 124.026 206.158 123.115C207.879 122.153 209.246 120.862 210.258 119.243C211.271 117.572 211.777 115.699 211.777 113.624C211.777 111.498 211.296 109.626 210.334 108.006C209.373 106.335 208.082 105.019 206.462 104.058C204.893 103.096 203.121 102.615 201.147 102.615C199.325 102.615 197.68 102.97 196.212 103.678C194.744 104.387 193.53 105.374 192.568 106.639C191.606 107.854 190.923 109.271 190.518 110.891V116.13C190.771 117.749 191.378 119.192 192.34 120.457C193.302 121.723 194.491 122.71 195.909 123.418C197.376 124.127 198.946 124.481 200.616 124.481Z" fill="#1EA492"/>
<path d="M156.979 130.1C154.6 130.1 152.297 129.543 150.07 128.429C147.893 127.316 146.197 125.823 144.983 123.95L145.438 121.748V144.449H138.453V97.4524H144.527L145.514 105.5L144.755 103.299C146.273 101.375 148.197 99.7807 150.525 98.5153C152.853 97.2499 155.46 96.6172 158.345 96.6172C161.281 96.6172 163.913 97.3258 166.241 98.7431C168.62 100.16 170.493 102.134 171.86 104.665C173.226 107.196 173.91 110.157 173.91 113.548C173.91 116.94 173.176 119.875 171.708 122.356C170.24 124.836 168.215 126.759 165.634 128.126C163.103 129.442 160.218 130.1 156.979 130.1ZM155.612 124.481C157.637 124.481 159.484 124.026 161.154 123.115C162.875 122.153 164.242 120.862 165.254 119.243C166.267 117.572 166.773 115.699 166.773 113.624C166.773 111.498 166.292 109.626 165.33 108.006C164.369 106.335 163.078 105.019 161.458 104.058C159.889 103.096 158.118 102.615 156.143 102.615C154.321 102.615 152.676 102.97 151.208 103.678C149.741 104.387 148.526 105.374 147.564 106.639C146.602 107.854 145.919 109.271 145.514 110.891V116.13C145.767 117.749 146.375 119.192 147.336 120.457C148.298 121.723 149.487 122.71 150.905 123.418C152.373 124.127 153.942 124.481 155.612 124.481Z" fill="#1EA492"/>
<path d="M113.572 130.1C109.979 130.1 106.891 129.391 104.31 127.974C101.728 126.506 99.7289 124.532 98.3117 122.052C96.945 119.521 96.2617 116.636 96.2617 113.396C96.2617 110.309 97.0463 107.5 98.6154 104.969C100.184 102.438 102.285 100.413 104.917 98.8949C107.549 97.3764 110.485 96.6172 113.724 96.6172C117.875 96.6172 121.317 97.832 124.05 100.262C126.783 102.691 128.631 106.032 129.592 110.284L103.702 119.394L102.032 115.219L123.291 107.474L121.772 108.461C121.165 106.791 120.153 105.348 118.735 104.134C117.318 102.868 115.471 102.236 113.193 102.236C111.269 102.236 109.548 102.716 108.03 103.678C106.511 104.589 105.322 105.855 104.462 107.474C103.601 109.094 103.171 110.942 103.171 113.017C103.171 115.193 103.626 117.117 104.537 118.787C105.449 120.407 106.689 121.697 108.258 122.659C109.877 123.57 111.7 124.026 113.724 124.026C115.091 124.026 116.407 123.773 117.672 123.267C118.988 122.76 120.203 122.102 121.317 121.293L124.581 126.531C123.012 127.594 121.241 128.455 119.267 129.113C117.343 129.771 115.445 130.1 113.572 130.1Z" fill="#1EA492"/>
<path d="M72.5255 130.1C70.1466 130.1 67.8435 129.543 65.6164 128.429C63.4399 127.316 61.7443 125.823 60.5295 123.95L60.985 121.748V144.449H54V97.4524H60.0739L61.061 105.5L60.3017 103.299C61.8202 101.375 63.7436 99.7807 66.072 98.5153C68.4003 97.2499 71.007 96.6172 73.8922 96.6172C76.8279 96.6172 79.4599 97.3258 81.7883 98.7431C84.1672 100.16 86.04 102.134 87.4067 104.665C88.7733 107.196 89.4566 110.157 89.4566 113.548C89.4566 116.94 88.7227 119.875 87.2548 122.356C85.787 124.836 83.7623 126.759 81.1809 128.126C78.6501 129.442 75.765 130.1 72.5255 130.1ZM71.1589 124.481C73.1835 124.481 75.031 124.026 76.7013 123.115C78.4223 122.153 79.7889 120.862 80.8013 119.243C81.8136 117.572 82.3197 115.699 82.3197 113.624C82.3197 111.498 81.8389 109.626 80.8772 108.006C79.9155 106.335 78.6248 105.019 77.005 104.058C75.4359 103.096 73.6644 102.615 71.6903 102.615C69.8682 102.615 68.2231 102.97 66.7553 103.678C65.2874 104.387 64.0726 105.374 63.1109 106.639C62.1492 107.854 61.4659 109.271 61.061 110.891V116.13C61.314 117.749 61.9214 119.192 62.8831 120.457C63.8448 121.723 65.0343 122.71 66.4516 123.418C67.9194 124.127 69.4885 124.481 71.1589 124.481Z" fill="#1EA492"/>
<path fill-rule="evenodd" clip-rule="evenodd" d="M455.625 50.3881C452.181 51.9185 449.965 55.3086 449.965 59.0469V147.396C449.965 152.637 454.255 156.886 459.548 156.886H536.213C541.506 156.886 545.796 152.637 545.796 147.396V59.0469C545.796 55.3086 543.58 51.9185 540.136 50.3881L525.381 43.8317C524.148 43.2834 522.811 43 521.458 43H474.303C472.95 43 471.613 43.2834 470.38 43.8317L455.625 50.3881ZM469.703 126.554C472.788 128.334 476.445 129.224 480.674 129.224C484.903 129.224 488.551 128.334 491.619 126.554C494.704 124.757 497.082 122.259 498.752 119.059C500.421 115.842 501.256 112.112 501.256 107.87C501.256 103.592 500.421 99.8533 498.752 96.6539C497.082 93.4364 494.704 90.938 491.619 89.1585C488.551 87.361 484.903 86.4623 480.674 86.4623C476.445 86.4623 472.788 87.361 469.703 89.1585C466.635 90.938 464.267 93.4364 462.597 96.6539C460.927 99.8533 460.092 103.592 460.092 107.87C460.092 112.112 460.927 115.842 462.597 119.059C464.267 122.259 466.635 124.757 469.703 126.554ZM485.548 118.709C484.259 119.787 482.653 120.326 480.729 120.326C478.787 120.326 477.153 119.787 475.828 118.709C474.522 117.612 473.532 116.12 472.861 114.233C472.207 112.346 471.881 110.198 471.881 107.789C471.881 105.38 472.207 103.233 472.861 101.345C473.532 99.4579 474.522 97.966 475.828 96.8695C477.153 95.7731 478.787 95.2249 480.729 95.2249C482.653 95.2249 484.259 95.7731 485.548 96.8695C486.836 97.966 487.807 99.4579 488.461 101.345C489.132 103.233 489.468 105.38 489.468 107.789C489.468 110.198 489.132 112.346 488.461 114.233C487.807 116.12 486.836 117.612 485.548 118.709ZM531.04 95.6293V87.0016H523.172V77.0796H511.575V87.0016H505.857V95.6293H511.575V117.199C511.556 119.913 512.128 122.16 513.29 123.939C514.451 125.719 516.076 127.031 518.163 127.876C520.268 128.72 522.719 129.089 525.514 128.981C527.02 128.927 528.3 128.774 529.352 128.523C530.405 128.289 531.222 128.082 531.803 127.903L529.978 119.356C529.688 119.41 529.271 119.49 528.726 119.598C528.182 119.688 527.637 119.733 527.093 119.733C526.312 119.733 525.623 119.616 525.024 119.383C524.443 119.149 523.989 118.745 523.662 118.169C523.336 117.576 523.172 116.749 523.172 115.689V95.6293H531.04Z" fill="#1EA492"/>
</svg>
