<svg width="600" height="200" viewBox="0 0 600 200" fill="none" xmlns="http://www.w3.org/2000/svg">
<path fill-rule="evenodd" clip-rule="evenodd" d="M156.905 52.3344L164.937 72.5203L185.055 80.3854L190.104 47.3498L156.905 52.3344ZM117.962 52.4034L109.957 72.5203L89.3788 80.5651L84.3031 47.3498L117.962 52.4034ZM89.3838 118.974L84.3031 152.222L117.975 147.167L109.957 127.017L89.3838 118.974ZM156.892 147.236L190.104 152.222L185.05 119.154L164.937 127.017L156.892 147.236ZM164.496 80.4603L213.886 99.7688L164.497 119.077L154.588 99.7675L164.496 80.4603ZM158.183 76.1163L157.854 75.2891L137.447 24L117.04 75.2891L116.581 76.4421L124.282 91.4475L133.907 72.6907L137.3 66.0789L140.693 72.6907L150.317 91.4449L158.183 76.1163ZM146.046 99.7675L137.3 82.724L128.552 99.7701L137.299 116.814L146.046 99.7675ZM120.011 99.7701L110.151 80.557L61.0078 99.7688L110.152 118.981L120.011 99.7701ZM124.282 108.093L133.906 126.847L137.299 133.459L140.692 126.847L150.317 108.09L158.184 123.42L157.854 124.248L137.447 175.538L117.04 124.248L116.582 123.097L124.282 108.093Z" fill="url(#paint0_linear_4761_2993)"/>
<path d="M512.714 166.607C510.379 166.607 508.045 166.251 505.71 165.538C503.415 164.826 501.555 163.896 500.131 162.749L502.742 157.348C503.573 157.941 504.503 158.456 505.532 158.891C506.561 159.326 507.649 159.662 508.796 159.9C509.983 160.137 511.151 160.256 512.298 160.256C514.395 160.256 516.136 159.92 517.521 159.247C518.946 158.614 520.014 157.625 520.726 156.279C521.439 154.974 521.795 153.331 521.795 151.353V145.596L522.863 146.011C522.626 147.238 521.973 148.405 520.904 149.513C519.836 150.621 518.491 151.531 516.868 152.243C515.246 152.916 513.584 153.252 511.883 153.252C508.915 153.252 506.284 152.56 503.989 151.175C501.733 149.79 499.933 147.91 498.588 145.536C497.282 143.123 496.629 140.353 496.629 137.227C496.629 134.101 497.282 131.331 498.588 128.917C499.893 126.464 501.674 124.545 503.929 123.16C506.224 121.736 508.796 121.023 511.645 121.023C512.832 121.023 513.98 121.162 515.088 121.439C516.196 121.716 517.205 122.112 518.115 122.626C519.064 123.14 519.915 123.714 520.667 124.347C521.419 124.98 522.032 125.653 522.507 126.365C522.982 127.077 523.279 127.77 523.397 128.443L521.854 128.917L521.973 121.676H529.155V150.819C529.155 153.351 528.779 155.587 528.027 157.526C527.275 159.465 526.187 161.107 524.762 162.452C523.338 163.837 521.617 164.866 519.599 165.538C517.581 166.251 515.286 166.607 512.714 166.607ZM513.01 147.02C514.791 147.02 516.354 146.605 517.699 145.774C519.084 144.943 520.153 143.795 520.904 142.331C521.656 140.867 522.032 139.186 522.032 137.286C522.032 135.347 521.636 133.646 520.845 132.182C520.093 130.678 519.045 129.511 517.699 128.68C516.354 127.849 514.791 127.434 513.01 127.434C511.23 127.434 509.667 127.869 508.321 128.739C506.976 129.57 505.908 130.738 505.116 132.241C504.365 133.705 503.989 135.387 503.989 137.286C503.989 139.146 504.365 140.828 505.116 142.331C505.908 143.795 506.976 144.943 508.321 145.774C509.667 146.605 511.23 147.02 513.01 147.02Z" fill="#0B0B0B"/>
<path d="M462.484 152.956V121.676H469.607L469.725 128.086L468.36 128.799C468.756 127.374 469.528 126.088 470.675 124.941C471.823 123.754 473.188 122.804 474.771 122.092C476.353 121.38 477.976 121.023 479.637 121.023C482.012 121.023 483.99 121.498 485.573 122.448C487.195 123.398 488.402 124.822 489.193 126.721C490.024 128.621 490.44 130.995 490.44 133.844V152.956H483.139V134.378C483.139 132.795 482.922 131.489 482.486 130.461C482.051 129.392 481.379 128.621 480.468 128.146C479.558 127.631 478.45 127.394 477.145 127.434C476.076 127.434 475.087 127.612 474.177 127.968C473.306 128.284 472.535 128.759 471.862 129.392C471.229 129.986 470.715 130.678 470.319 131.47C469.963 132.261 469.785 133.132 469.785 134.081V152.956H466.164C465.452 152.956 464.779 152.956 464.146 152.956C463.553 152.956 462.999 152.956 462.484 152.956Z" fill="#0B0B0B"/>
<path d="M445.928 152.961V121.682H453.228V152.961H445.928ZM449.489 115.034C448.025 115.034 446.877 114.678 446.046 113.966C445.255 113.214 444.859 112.166 444.859 110.82C444.859 109.554 445.275 108.525 446.106 107.734C446.937 106.943 448.064 106.547 449.489 106.547C450.993 106.547 452.14 106.923 452.931 107.675C453.762 108.387 454.178 109.435 454.178 110.82C454.178 112.047 453.762 113.056 452.931 113.847C452.1 114.639 450.953 115.034 449.489 115.034Z" fill="#0B0B0B"/>
<path d="M425.403 152.955V113.723H432.704V152.955H425.403ZM419.23 128.442V121.676H439.529V128.442H419.23Z" fill="#0B0B0B"/>
<path d="M401.901 153.558C398.617 153.558 395.708 152.865 393.176 151.48C390.683 150.095 388.725 148.216 387.3 145.842C385.915 143.428 385.223 140.678 385.223 137.592C385.223 135.138 385.618 132.903 386.41 130.885C387.201 128.867 388.289 127.126 389.674 125.662C391.099 124.158 392.78 123.01 394.719 122.219C396.698 121.388 398.854 120.973 401.189 120.973C403.246 120.973 405.165 121.368 406.946 122.16C408.727 122.951 410.27 124.039 411.576 125.424C412.881 126.769 413.871 128.392 414.543 130.291C415.255 132.151 415.592 134.189 415.552 136.405L415.493 138.957H390.149L388.784 133.971H409.379L408.43 134.98V133.674C408.311 132.448 407.915 131.379 407.243 130.469C406.57 129.52 405.7 128.788 404.631 128.273C403.602 127.719 402.455 127.442 401.189 127.442C399.25 127.442 397.608 127.818 396.262 128.57C394.957 129.322 393.967 130.41 393.295 131.834C392.622 133.219 392.286 134.96 392.286 137.057C392.286 139.075 392.701 140.836 393.532 142.34C394.403 143.843 395.609 145.011 397.153 145.842C398.735 146.633 400.575 147.029 402.673 147.029C404.137 147.029 405.482 146.791 406.709 146.317C407.935 145.842 409.261 144.991 410.685 143.764L414.306 148.809C413.237 149.799 412.011 150.649 410.626 151.362C409.281 152.034 407.856 152.568 406.352 152.964C404.849 153.36 403.365 153.558 401.901 153.558Z" fill="#0B0B0B"/>
<path d="M360.458 143.405L359.034 136.579L373.872 121.681H383.606L360.458 143.405ZM353.633 152.961V109.039H360.933V152.961H353.633ZM374.763 152.961L363.248 139.012L368.412 134.62L383.784 152.961H374.763Z" fill="#0B0B0B"/>
<path d="M328.645 152.956V121.676H335.826L335.945 131.648L334.936 129.392C335.371 127.81 336.123 126.385 337.191 125.119C338.26 123.853 339.486 122.863 340.871 122.151C342.296 121.399 343.78 121.023 345.323 121.023C345.995 121.023 346.629 121.083 347.222 121.202C347.855 121.32 348.37 121.459 348.765 121.617L346.807 129.63C346.371 129.392 345.837 129.194 345.204 129.036C344.571 128.878 343.938 128.799 343.305 128.799C342.316 128.799 341.366 128.997 340.456 129.392C339.585 129.748 338.814 130.263 338.141 130.935C337.468 131.608 336.934 132.399 336.539 133.31C336.182 134.18 336.004 135.169 336.004 136.277V152.956H328.645Z" fill="#0B0B0B"/>
<path d="M302.374 153.549C299.802 153.549 297.467 152.837 295.37 151.412C293.273 149.988 291.591 148.049 290.325 145.596C289.059 143.142 288.426 140.353 288.426 137.227C288.426 134.101 289.059 131.311 290.325 128.858C291.591 126.405 293.313 124.486 295.489 123.101C297.665 121.716 300.118 121.023 302.849 121.023C304.431 121.023 305.876 121.261 307.181 121.736C308.487 122.171 309.635 122.804 310.624 123.635C311.613 124.466 312.424 125.416 313.057 126.484C313.73 127.552 314.185 128.7 314.423 129.926L312.82 129.511V121.676H320.18V152.956H312.761V145.477L314.482 145.18C314.205 146.249 313.691 147.297 312.939 148.326C312.226 149.315 311.316 150.205 310.208 150.997C309.14 151.749 307.933 152.362 306.588 152.837C305.282 153.312 303.877 153.549 302.374 153.549ZM304.392 147.08C306.093 147.08 307.597 146.664 308.903 145.833C310.208 145.002 311.217 143.855 311.93 142.391C312.681 140.887 313.057 139.166 313.057 137.227C313.057 135.328 312.681 133.646 311.93 132.182C311.217 130.718 310.208 129.57 308.903 128.739C307.597 127.908 306.093 127.493 304.392 127.493C302.69 127.493 301.187 127.908 299.881 128.739C298.615 129.57 297.626 130.718 296.913 132.182C296.201 133.646 295.845 135.328 295.845 137.227C295.845 139.166 296.201 140.887 296.913 142.391C297.626 143.855 298.615 145.002 299.881 145.833C301.187 146.664 302.69 147.08 304.392 147.08Z" fill="#0B0B0B"/>
<path d="M240.281 152.957V111.41H247.582L262.717 136.042L258.443 135.982L273.757 111.41H280.701V152.957H273.044V137.348C273.044 133.786 273.123 130.581 273.282 127.732C273.48 124.883 273.796 122.054 274.231 119.245L275.181 121.797L262.301 141.68H258.384L245.92 121.975L246.751 119.245C247.186 121.896 247.483 124.626 247.641 127.436C247.839 130.205 247.938 133.509 247.938 137.348V152.957H240.281Z" fill="#0B0B0B"/>
<path d="M518.879 78.7641V47.4849H526.061L526.179 57.4563L525.17 55.2008C525.606 53.6181 526.357 52.1936 527.426 50.9274C528.494 49.6612 529.721 48.672 531.106 47.9597C532.53 47.2079 534.014 46.832 535.557 46.832C536.23 46.832 536.863 46.8914 537.456 47.0101C538.09 47.1288 538.604 47.2673 539 47.4256L537.041 55.4383C536.606 55.2008 536.072 55.003 535.438 54.8447C534.805 54.6865 534.172 54.6073 533.539 54.6073C532.55 54.6073 531.6 54.8052 530.69 55.2008C529.82 55.557 529.048 56.0714 528.375 56.744C527.703 57.4167 527.169 58.2081 526.773 59.1182C526.417 59.9887 526.239 60.9779 526.239 62.0858V78.7641H518.879Z" fill="#0B0B0B"/>
<path d="M498.76 79.3623C495.476 79.3623 492.568 78.6698 490.035 77.2849C487.543 75.9 485.584 74.0205 484.159 71.6464C482.774 69.2327 482.082 66.4826 482.082 63.3963C482.082 60.943 482.478 58.7074 483.269 56.6893C484.06 54.6713 485.149 52.9303 486.534 51.4663C487.958 49.9626 489.64 48.8151 491.579 48.0238C493.557 47.1928 495.714 46.7773 498.048 46.7773C500.106 46.7773 502.025 47.173 503.805 47.9644C505.586 48.7558 507.129 49.8439 508.435 51.2288C509.741 52.5742 510.73 54.1965 511.403 56.0958C512.115 57.9555 512.451 59.9933 512.412 62.2092L512.352 64.7614H487.008L485.643 59.7757H506.239L505.289 60.7847V59.4789C505.17 58.2523 504.775 57.184 504.102 56.2739C503.429 55.3242 502.559 54.5922 501.491 54.0778C500.462 53.5238 499.314 53.2469 498.048 53.2469C496.109 53.2469 494.467 53.6228 493.122 54.3746C491.816 55.1264 490.827 56.2145 490.154 57.639C489.481 59.0239 489.145 60.7649 489.145 62.8621C489.145 64.8801 489.561 66.6409 490.391 68.1445C491.262 69.6481 492.469 70.8154 494.012 71.6464C495.595 72.4377 497.435 72.8334 499.532 72.8334C500.996 72.8334 502.341 72.596 503.568 72.1212C504.795 71.6464 506.12 70.7956 507.545 69.569L511.165 74.614C510.097 75.6033 508.87 76.454 507.485 77.1662C506.14 77.8389 504.715 78.3731 503.212 78.7688C501.708 79.1645 500.224 79.3623 498.76 79.3623Z" fill="#0B0B0B"/>
<path d="M458.656 79.3626C455.886 79.3626 453.393 78.6702 451.177 77.2853C449.001 75.8608 447.26 73.9417 445.954 71.528C444.688 69.0747 444.055 66.2653 444.055 63.0998C444.055 59.9739 444.688 57.1843 445.954 54.731C447.22 52.2777 448.941 50.3587 451.118 48.9737C453.334 47.5493 455.826 46.837 458.596 46.837C460.1 46.837 461.544 47.0744 462.929 47.5493C464.354 48.0241 465.62 48.677 466.728 49.5079C467.836 50.2993 468.706 51.1896 469.339 52.1788C470.012 53.168 470.388 54.1968 470.467 55.2652L468.508 55.5026V34.8477H475.809V78.7691H468.746L468.568 71.4093L469.992 71.528C469.953 72.5172 469.596 73.4669 468.924 74.377C468.291 75.287 467.46 76.118 466.431 76.8698C465.402 77.6216 464.195 78.2349 462.81 78.7097C461.465 79.145 460.08 79.3626 458.656 79.3626ZM460.08 73.1899C461.782 73.1899 463.285 72.7546 464.591 71.8841C465.897 71.0136 466.906 69.8265 467.618 68.3229C468.37 66.8193 468.746 65.0783 468.746 63.0998C468.746 61.161 468.37 59.4397 467.618 57.9361C466.906 56.3929 465.897 55.2058 464.591 54.3749C463.285 53.5044 461.782 53.0691 460.08 53.0691C458.379 53.0691 456.875 53.5044 455.569 54.3749C454.263 55.2058 453.235 56.3929 452.483 57.9361C451.771 59.4397 451.414 61.161 451.414 63.0998C451.414 65.0783 451.771 66.8193 452.483 68.3229C453.235 69.8265 454.263 71.0136 455.569 71.8841C456.875 72.7546 458.379 73.1899 460.08 73.1899Z" fill="#0B0B0B"/>
<path d="M409.906 78.7641V47.4849H417.029L417.147 53.8951L415.782 54.6073C416.178 53.1828 416.95 51.8968 418.097 50.7493C419.245 49.5623 420.61 48.6126 422.192 47.9004C423.775 47.1881 425.397 46.832 427.059 46.832C429.433 46.832 431.412 47.3069 432.995 48.2565C434.617 49.2062 435.824 50.6306 436.615 52.5299C437.446 54.4293 437.862 56.8034 437.862 59.6523V78.7641H430.561V60.1865C430.561 58.6038 430.344 57.298 429.908 56.2692C429.473 55.2008 428.8 54.4293 427.89 53.9544C426.98 53.44 425.872 53.2026 424.567 53.2422C423.498 53.2422 422.509 53.4202 421.599 53.7764C420.728 54.0929 419.957 54.5677 419.284 55.2008C418.651 55.7944 418.137 56.4868 417.741 57.2782C417.385 58.0696 417.207 58.9401 417.207 59.8898V78.7641H413.586C412.874 78.7641 412.201 78.7641 411.568 78.7641C410.975 78.7641 410.421 78.7641 409.906 78.7641Z" fill="#0B0B0B"/>
<path d="M372.066 78.7697V44.701C372.066 42.8017 372.482 41.12 373.313 39.6559C374.144 38.1523 375.291 36.985 376.755 36.1541C378.219 35.2836 379.921 34.8483 381.859 34.8483C383.205 34.8483 384.451 35.0857 385.599 35.5605C386.746 35.9958 387.716 36.6091 388.507 37.4005L386.252 42.9204C385.737 42.4851 385.183 42.1488 384.59 41.9113C384.036 41.6739 383.502 41.5552 382.987 41.5552C382.196 41.5552 381.523 41.6937 380.969 41.9707C380.455 42.2081 380.059 42.584 379.782 43.0984C379.545 43.6128 379.426 44.2261 379.426 44.9384V78.7697H375.746C375.034 78.7697 374.361 78.7697 373.728 78.7697C373.135 78.7697 372.581 78.7697 372.066 78.7697ZM367.199 54.5536V48.1434H386.489V54.5536H367.199ZM393.374 78.7697V47.4906H400.674V78.7697H393.374ZM396.935 40.843C395.471 40.843 394.324 40.4869 393.493 39.7746C392.701 39.0228 392.306 37.9742 392.306 36.6289C392.306 35.3627 392.721 34.3339 393.552 33.5425C394.383 32.7512 395.511 32.3555 396.935 32.3555C398.439 32.3555 399.586 32.7314 400.378 33.4832C401.209 34.1954 401.624 35.244 401.624 36.6289C401.624 37.8555 401.209 38.8645 400.378 39.6559C399.547 40.4473 398.399 40.843 396.935 40.843Z" fill="#0B0B0B"/>
<path d="M338.666 92.4187L345.314 77.0462L345.373 81.9132L329.941 47.4883H338.37L346.976 67.9058C347.253 68.4202 347.53 69.1127 347.807 69.9832C348.084 70.8141 348.321 71.6451 348.519 72.476L347.035 72.9509C347.312 72.199 347.609 71.4077 347.925 70.5767C348.242 69.7062 348.539 68.8159 348.816 67.9058L356.176 47.4883H364.663L351.605 78.7675L346.264 92.4187H338.666Z" fill="#0B0B0B"/>
<path d="M308.343 79.3576C305.771 79.3576 303.436 78.6454 301.339 77.2209C299.242 75.7964 297.56 73.8576 296.294 71.4043C295.028 68.951 294.395 66.1614 294.395 63.0355C294.395 59.9095 295.028 57.1199 296.294 54.6667C297.56 52.2134 299.281 50.2943 301.458 48.9094C303.634 47.5245 306.087 46.832 308.817 46.832C310.4 46.832 311.844 47.0694 313.15 47.5443C314.456 47.9795 315.603 48.6126 316.593 49.4436C317.582 50.2745 318.393 51.2242 319.026 52.2925C319.699 53.3609 320.154 54.5084 320.391 55.735L318.789 55.3196V47.4849H326.149V78.7641H318.729V71.2856L320.451 70.9888C320.174 72.0572 319.659 73.1058 318.907 74.1346C318.195 75.1238 317.285 76.0141 316.177 76.8054C315.109 77.5573 313.902 78.1706 312.557 78.6454C311.251 79.1202 309.846 79.3576 308.343 79.3576ZM310.361 72.8881C312.062 72.8881 313.566 72.4727 314.871 71.6417C316.177 70.8108 317.186 69.6633 317.898 68.1992C318.65 66.6956 319.026 64.9744 319.026 63.0355C319.026 61.1362 318.65 59.4545 317.898 57.9905C317.186 56.5264 316.177 55.3789 314.871 54.548C313.566 53.717 312.062 53.3015 310.361 53.3015C308.659 53.3015 307.155 53.717 305.85 54.548C304.584 55.3789 303.594 56.5264 302.882 57.9905C302.17 59.4545 301.814 61.1362 301.814 63.0355C301.814 64.9744 302.17 66.6956 302.882 68.1992C303.594 69.6633 304.584 70.8108 305.85 71.6417C307.155 72.4727 308.659 72.8881 310.361 72.8881Z" fill="#0B0B0B"/>
<path d="M248.654 78.77L235.715 37.2227H243.787L251.147 61.7356C251.384 62.4874 251.602 63.3183 251.8 64.2284C251.997 65.1385 252.175 66.0486 252.334 66.9587C252.492 67.8292 252.631 68.6403 252.749 69.3921C252.868 70.144 252.987 70.7771 253.105 71.2914L251.503 71.2321C251.978 69.3724 252.354 67.8687 252.631 66.7212C252.908 65.5738 253.145 64.6241 253.343 63.8723C253.58 63.0809 253.818 62.3489 254.055 61.6762L261.059 43.7515H267.647L274.473 61.6762C274.868 62.7841 275.224 63.8525 275.541 64.8813C275.857 65.8705 276.115 66.8597 276.313 67.849C276.55 68.7986 276.768 69.7878 276.965 70.8166L275.541 71.1134C275.699 70.1637 275.818 69.3921 275.897 68.7986C275.976 68.2051 276.055 67.6709 276.134 67.1961C276.214 66.7212 276.293 66.2662 276.372 65.8309C276.451 65.3561 276.57 64.8022 276.728 64.1691C276.926 63.4964 277.163 62.6457 277.44 61.6169L284.741 37.2227H292.753L279.755 78.77H274.176L263.611 53.4855L264.323 53.7229L254.292 78.77H248.654Z" fill="#0B0B0B"/>
<defs>
<linearGradient id="paint0_linear_4761_2993" x1="137.447" y1="24" x2="137.447" y2="175.538" gradientUnits="userSpaceOnUse">
<stop offset="1" stop-color="#3CBDA3"/>
</linearGradient>
</defs>
</svg>
